<?xml version="1.0" encoding="UTF-8"?>
<svg version="1.1" xmlns="http://www.w3.org/2000/svg" width="256" height="256">
<path d="M0 0 C1.00461197 -0.01041829 1.00461197 -0.01041829 2.02951914 -0.02104706 C4.26673046 -0.03929805 6.50287905 -0.02905904 8.74012756 -0.01878357 C10.34688102 -0.02584308 11.95362783 -0.03458824 13.56036377 -0.04489136 C17.91994464 -0.06739214 22.27916258 -0.06444402 26.6387794 -0.05556989 C30.27949568 -0.05045939 33.9201438 -0.05775309 37.56085306 -0.06504196 C46.15029424 -0.08204328 54.73955777 -0.07847295 63.32899475 -0.06175232 C72.18770251 -0.0448304 81.04591754 -0.06066584 89.90457147 -0.0929752 C97.51323273 -0.11967336 105.12174062 -0.12694651 112.73044401 -0.11846012 C117.27352143 -0.11353157 121.81630238 -0.11574249 126.35934258 -0.13624763 C130.63181459 -0.1546084 134.90357807 -0.1486417 139.17601204 -0.12404823 C140.7425107 -0.11904153 142.30906338 -0.12252658 143.8755188 -0.13519669 C146.01751537 -0.15114922 148.15718484 -0.1361611 150.29907227 -0.11352539 C152.09512358 -0.11264593 152.09512358 -0.11264593 153.92745876 -0.1117487 C158.36728756 0.73472983 160.00188593 2.36341107 163.21302795 5.5146637 C166.48625775 10.39803848 166.61881876 14.52286908 166.5059967 20.1943512 C166.50175186 21.00711517 166.49750702 21.81987915 166.49313354 22.65727234 C166.47643599 25.23508328 166.43880157 27.8120919 166.40052795 30.3896637 C166.38546953 32.14486068 166.37178315 33.90007001 166.35951233 35.6552887 C166.32656187 39.94205282 166.27484248 44.22822256 166.21302795 48.5146637 C166.81759827 48.78407776 167.42216858 49.05349182 168.0450592 49.33106995 C172.13045891 51.56147735 174.76017062 55.15609168 176.21302795 59.5146637 C176.6108608 64.78594892 176.03953332 68.0312414 173.21302795 72.5146637 C170.65052795 75.3896637 170.65052795 75.3896637 168.21302795 77.5146637 C167.55302795 77.5146637 166.89302795 77.5146637 166.21302795 77.5146637 C166.2594342 78.62325745 166.30584045 79.7318512 166.35365295 80.8740387 C166.39117897 82.33755338 166.42757825 83.80109725 166.46302795 85.2646637 C166.49654358 85.99427307 166.5300592 86.72388245 166.56459045 87.4756012 C166.66538364 93.01922651 166.66538364 93.01922651 164.24427795 95.6709137 C163.57396545 96.2793512 162.90365295 96.8877887 162.21302795 97.5146637 C161.5214484 100.31644744 161.5214484 100.31644744 161.46302795 103.2646637 C161.4063092 104.24950745 161.34959045 105.2343512 161.29115295 106.2490387 C161.2653717 106.99669495 161.23959045 107.7443512 161.21302795 108.5146637 C162.17209045 108.9787262 162.17209045 108.9787262 163.15052795 109.4521637 C165.21302795 110.5146637 165.21302795 110.5146637 166.21302795 111.5146637 C166.52116374 114.44195363 166.6487763 115.94026815 164.83802795 118.3271637 C163.21302795 119.5146637 163.21302795 119.5146637 161.21302795 119.5146637 C161.27340528 121.26560602 161.36229533 123.01557897 161.46302795 124.7646637 C161.5094342 125.73919495 161.55584045 126.7137262 161.60365295 127.7177887 C161.95364755 130.64035155 161.95364755 130.64035155 164.24427795 132.3271637 C167.26134314 135.67945835 166.65019552 138.92381595 166.46302795 143.2646637 C166.44498108 144.05743713 166.4269342 144.85021057 166.40834045 145.66700745 C166.36135877 147.61674717 166.2896184 149.56586248 166.21302795 151.5146637 C167.38091858 151.93425354 167.38091858 151.93425354 168.57240295 152.36231995 C171.88100502 153.80616256 173.19584744 155.56093509 175.21302795 158.5146637 C176.74803522 163.1196855 177.16969489 167.24803788 175.2716217 171.74513245 C172.76268431 176.06302156 171.05919046 177.90199113 166.21302795 179.5146637 C166.2594342 180.19271057 166.30584045 180.87075745 166.35365295 181.5693512 C166.69764291 190.43937779 165.26389288 197.40164208 159.1466217 204.04200745 C155.15947837 207.87979441 150.94318582 209.82570423 145.83802795 211.8271637 C144.94551331 212.19253235 144.05299866 212.557901 143.13343811 212.93434143 C141.20295906 213.7211584 139.26905165 214.49960525 137.33216858 215.27052307 C134.00759424 216.59660564 130.69605184 217.95230366 127.38490295 219.3115387 C125.11980533 220.23470874 122.85418915 221.15660756 120.58802795 222.0771637 C119.50344299 222.51907043 118.41885803 222.96097717 117.30140686 223.41627502 C116.2899762 223.82128235 115.27854553 224.22628967 114.23646545 224.64356995 C113.33847229 225.00523254 112.44047913 225.36689514 111.51527405 225.73951721 C109.21302795 226.5146637 109.21302795 226.5146637 106.21302795 226.5146637 C106.30003967 228.4327887 106.30003967 228.4327887 106.3888092 230.3896637 C106.43574043 232.09796025 106.48123696 233.80629665 106.52552795 235.5146637 C106.58836975 236.77343323 106.58836975 236.77343323 106.65248108 238.05763245 C106.77349653 244.3020296 105.53744858 248.85893936 101.21302795 253.5146637 C96.6588916 257.24136141 92.14987184 256.98215017 86.5294342 256.9834137 C85.59630905 256.99102722 84.6631839 256.99864075 83.70178223 257.00648499 C81.73249481 257.01726822 79.76315029 257.02014632 77.7938385 257.01564026 C74.78871379 257.01466796 71.78614365 257.05630866 68.78138733 257.1006012 C66.86407492 257.10580864 64.94675368 257.10849638 63.0294342 257.1084137 C62.13551468 257.12480896 61.24159515 257.14120422 60.32058716 257.15809631 C56.02485385 257.11075109 53.12659975 256.90359278 49.71595764 254.14601135 C44.89912031 249.08203625 43.87100165 245.02413083 43.94935608 238.2334137 C43.9744928 237.3774762 43.99962952 236.5215387 44.02552795 235.6396637 C44.04583069 234.32095276 44.04583069 234.32095276 44.06654358 232.9756012 C44.10166173 230.82168818 44.15546101 228.66809366 44.21302795 226.5146637 C43.69708069 226.37858704 43.18113342 226.24251038 42.64955139 226.10231018 C34.49223039 223.80966824 26.68895427 220.67733603 18.83460999 217.52662659 C16.45743476 216.57492446 14.07570149 215.6353345 11.6934967 214.69630432 C10.16325819 214.08570397 8.63330014 213.47440017 7.10365295 212.86231995 C6.04878693 212.44805504 6.04878693 212.44805504 4.97261047 212.02542114 C-3.65049996 208.53607099 -10.85117154 203.4955118 -14.66197205 194.7646637 C-16.33685896 189.78897625 -16.04426197 184.69857912 -15.78697205 179.5146637 C-16.95486267 179.09507385 -16.95486267 179.09507385 -18.14634705 178.66700745 C-21.45494911 177.22316483 -22.76979154 175.4683923 -24.78697205 172.5146637 C-26.24187899 168.14994288 -26.69093209 163.87994776 -25.0330658 159.54200745 C-23.16659782 156.09453129 -21.21450808 153.45693411 -17.78697205 151.5146637 C-17.12697205 151.5146637 -16.46697205 151.5146637 -15.78697205 151.5146637 C-15.78697205 127.0946637 -15.78697205 102.6746637 -15.78697205 77.5146637 C-17.10697205 76.8546637 -18.42697205 76.1946637 -19.78697205 75.5146637 C-23.53407953 71.41898807 -25.61395927 68.80708301 -26.03697205 63.2021637 C-25.66501898 57.71585593 -23.84833628 54.7054626 -20.22447205 50.6396637 C-17.78697205 48.5146637 -17.78697205 48.5146637 -15.78697205 48.5146637 C-15.80791931 47.43048157 -15.82886658 46.34629944 -15.85044861 45.22926331 C-15.92318307 41.18333796 -15.96889248 37.13746971 -16.00669861 33.09107971 C-16.02673826 31.34423586 -16.05397791 29.59745845 -16.08872986 27.85084534 C-16.13758787 25.33106537 -16.16001691 22.81217685 -16.17759705 20.29200745 C-16.19824219 19.51880661 -16.21888733 18.74560577 -16.24015808 17.94897461 C-16.24245492 12.32144191 -15.07610679 9.1167149 -11.78697205 4.5146637 C-7.8918731 0.70891459 -5.4007908 0.01266476 0 0 Z M128.5606842 101.4209137 C125.33575002 105.67074377 125.50348191 108.8243357 125.65052795 114.0146637 C125.63957092 114.85642151 125.62861389 115.69817932 125.61732483 116.56544495 C125.6653432 120.63100012 125.90166776 122.98596454 127.9981842 126.5459137 C130.24748878 128.8514173 130.24748878 128.8514173 134.21302795 129.5146637 C134.21302795 119.6146637 134.21302795 109.7146637 134.21302795 99.5146637 C131.07466114 99.22285799 131.07466114 99.22285799 128.5606842 101.4209137 Z " fill="#040506" transform="translate(52.78697204589844,-0.5146636962890625)"/>
<path d="M0 0 C52.8 0 105.6 0 160 0 C160.33 5.28 160.66 10.56 161 16 C162.65 16.99 164.3 17.98 166 19 C166.48828125 21.91796875 166.48828125 21.91796875 166.3125 25.1875 C166.26738281 26.27417969 166.22226563 27.36085938 166.17578125 28.48046875 C166.11777344 29.31191406 166.05976563 30.14335938 166 31 C166.639375 31.309375 167.27875 31.61875 167.9375 31.9375 C170 33 170 33 171 34 C171.30813578 36.92728993 171.43574835 38.42560445 169.625 40.8125 C168 42 168 42 166 42 C166 45.96 166 49.92 166 54 C163.525 54.495 163.525 54.495 161 55 C160.67 60.94 160.34 66.88 160 73 C107.2 73 54.4 73 0 73 C0 48.91 0 24.82 0 0 Z M133.34765625 23.90625 C130.12272206 28.15608008 130.29045395 31.309672 130.4375 36.5 C130.42654297 37.34175781 130.41558594 38.18351562 130.40429688 39.05078125 C130.45231524 43.11633642 130.6886398 45.47130085 132.78515625 49.03125 C135.03446083 51.3367536 135.03446083 51.3367536 139 52 C139 42.1 139 32.2 139 22 C135.86163319 21.7081943 135.86163319 21.7081943 133.34765625 23.90625 Z " fill="#96E7F5" transform="translate(48,77)"/>
<path d="M0 0 C52.8 0 105.6 0 160 0 C160 11.11111111 160 11.11111111 156.77734375 15.4296875 C151.47346606 20.11575086 144.99513056 22.22119773 138.37988281 24.34619141 C134.07049323 25.7800108 130.16202941 27.38775854 126.1953125 29.609375 C103.55157903 41.57182381 69.39904101 42.14111626 45.04672241 35.02836609 C37.46306688 32.53832235 30.29554295 29.28186493 23.21044922 25.61572266 C19.11346843 23.55383529 14.90389269 21.88435499 10.62329102 20.24487305 C5.80336077 17.95759298 2.05429608 14.97355893 0 10 C0 6.7 0 3.4 0 0 Z " fill="#96E8F6" transform="translate(48,180)"/>
<path d="M0 0 C1.12277344 0.54527344 2.24554688 1.09054688 3.40234375 1.65234375 C9.0224442 4.27340493 13.51893417 5.23105987 19.71484375 5.21484375 C20.76115967 5.21774414 20.76115967 5.21774414 21.82861328 5.22070312 C28.14620916 5.02096117 32.50237607 2.83357697 38.02734375 -0.03515625 C44.29006338 -2.22710812 49.78583075 -2.5986526 56 0 C57.12277344 0.54527344 58.24554688 1.09054688 59.40234375 1.65234375 C65.0224442 4.27340493 69.51893417 5.23105987 75.71484375 5.21484375 C76.76115967 5.21774414 76.76115967 5.21774414 77.82861328 5.22070312 C83.66648263 5.03612857 87.8662544 3.27912898 92.90234375 0.46484375 C94.77734375 -0.34765625 94.77734375 -0.34765625 99.77734375 -0.34765625 C99.77734375 5.26234375 99.77734375 10.87234375 99.77734375 16.65234375 C46.97734375 16.65234375 -5.82265625 16.65234375 -60.22265625 16.65234375 C-60.22265625 11.04234375 -60.22265625 5.43234375 -60.22265625 -0.34765625 C-55.25181204 -0.34765625 -54.74167383 -0.28802734 -50.97265625 2.15234375 C-46.09351588 4.73498647 -41.94632494 5.14766078 -36.53515625 5.15234375 C-35.82262695 5.15814453 -35.11009766 5.16394531 -34.37597656 5.16992188 C-28.01472392 5.0221919 -23.59958237 2.88651693 -17.97265625 -0.03515625 C-11.70993662 -2.22710812 -6.21416925 -2.5986526 0 0 Z " fill="#90DDEC" transform="translate(108.22265625,31.34765625)"/>
<path d="M0 0 C1.94335236 -0.01268921 1.94335236 -0.01268921 3.92596436 -0.02563477 C5.36486942 -0.01980164 6.80377324 -0.01365712 8.24267578 -0.00723267 C9.75547668 -0.01129699 11.26827461 -0.01663809 12.78106689 -0.02316284 C16.8926036 -0.03685887 21.0039149 -0.03152844 25.11545563 -0.02202559 C29.41421627 -0.01444079 33.71295736 -0.02147131 38.01171875 -0.02618408 C45.23131787 -0.03164509 52.45082499 -0.024441 59.67041016 -0.01016235 C68.02233948 0.00616485 76.37404913 0.00087658 84.72597313 -0.01564157 C91.89122081 -0.02924664 99.05640228 -0.0311809 106.22165871 -0.02332556 C110.50358304 -0.01864364 114.78540404 -0.01803838 119.06732178 -0.02793503 C123.09256038 -0.03658823 127.1175152 -0.03061318 131.14272308 -0.01325226 C132.62178831 -0.00927856 134.10087734 -0.01043652 135.57993317 -0.01704025 C137.59527241 -0.02521016 139.61066372 -0.01315908 141.62597656 0 C142.75496368 0.00113108 143.88395081 0.00226215 145.04714966 0.00342751 C147.81298828 0.38095093 147.81298828 0.38095093 149.68136597 1.77707481 C151.77173059 4.73979996 150.98557262 7.87173596 150.81298828 11.38095093 C150.08853516 11.56270874 149.36408203 11.74446655 148.61767578 11.93173218 C147.16748047 12.30878296 147.16748047 12.30878296 145.68798828 12.69345093 C144.26099609 13.05890015 144.26099609 13.05890015 142.80517578 13.43173218 C139.74262333 14.30391976 139.74262333 14.30391976 136.85595703 15.95516968 C130.36974308 18.99428148 122.85856442 18.27917053 116.11767578 16.29110718 C112.96786024 15.07557433 109.89050544 13.76742469 106.81298828 12.38095093 C96.28508669 8.8716504 87.22858211 12.67315402 77.81298828 17.38095093 C67.67114327 18.37108921 60.01163247 16.52509639 50.81298828 12.38095093 C40.28508669 8.8716504 31.22858211 12.67315402 21.81298828 17.38095093 C13.27035639 18.19453492 6.78376583 17.54264628 -0.83154297 13.56063843 C-3.58162134 12.18331891 -6.12731531 11.62903442 -9.18701172 11.38095093 C-9.55481669 3.90224994 -9.55481669 3.90224994 -8.0553894 1.77707481 C-5.35917003 -0.23764432 -3.34480514 0.003351 0 0 Z " fill="#F9F9F9" transform="translate(57.18701171875,9.619049072265625)"/>
<path d="M0 0 C0.71013026 -0.00297112 1.42026053 -0.00594224 2.15190989 -0.0090034 C4.54330672 -0.01770961 6.93465361 -0.01920025 9.32606506 -0.02069092 C11.03575752 -0.02531767 12.74544895 -0.03034213 14.45513916 -0.03573608 C19.10796594 -0.04887434 23.76077828 -0.05530761 28.41362071 -0.05974674 C31.31794032 -0.06267467 34.22225595 -0.0667789 37.12657356 -0.07125092 C46.20615399 -0.08492849 55.28572536 -0.09459434 64.36531538 -0.09845281 C74.86040612 -0.10293686 85.35536684 -0.12049976 95.85041803 -0.1494534 C103.95405024 -0.17103683 112.05764578 -0.18115527 120.16130644 -0.18249393 C125.00552682 -0.18354419 129.84962501 -0.18949904 134.69381523 -0.20731354 C139.24840143 -0.22373702 143.80277284 -0.22597775 148.35737801 -0.21717453 C150.03157245 -0.21640112 151.70577818 -0.22078665 153.37994385 -0.23063278 C155.66053752 -0.24326184 157.94035999 -0.23752567 160.22094727 -0.22705078 C161.49872008 -0.22851734 162.7764929 -0.2299839 164.09298611 -0.2314949 C167.17396545 0.14044189 167.17396545 0.14044189 169.12024784 1.50325394 C170.17396545 3.14044189 170.17396545 3.14044189 169.98646545 5.70294189 C169.17396545 8.14044189 169.17396545 8.14044189 167.17396545 10.14044189 C164.21882725 10.39491749 164.21882725 10.39491749 160.34793091 10.40113831 C159.63780065 10.40496385 158.92767038 10.4087894 158.19602102 10.41273087 C155.80456174 10.42309098 153.41334122 10.4190631 151.02186584 10.4151001 C149.31217221 10.41944492 147.60248052 10.42462729 145.89279175 10.43058777 C141.23994275 10.4440139 136.5871748 10.44455243 131.9343102 10.44202447 C128.05488852 10.44095718 124.17548341 10.4458319 120.29606527 10.45062989 C111.14638471 10.46173762 101.9967452 10.46215541 92.84706116 10.45611572 C83.39715366 10.45007393 73.94739498 10.46238927 64.49751288 10.48368579 C56.39387372 10.50127919 48.29028203 10.50730673 40.18662447 10.50404805 C35.34241375 10.5022314 30.49830917 10.50490921 25.65411568 10.51876259 C21.09951596 10.53129959 16.54514887 10.52943619 11.9905529 10.5163517 C10.3163635 10.51397731 8.64215795 10.51675129 6.96798706 10.52497482 C4.68737926 10.53537166 2.40756226 10.5273995 0.12698364 10.5146637 C-1.15078918 10.51483144 -2.42856199 10.51499918 -3.7450552 10.515172 C-6.82603455 10.14044189 -6.82603455 10.14044189 -8.77231693 8.81236553 C-9.82603455 7.14044189 -9.82603455 7.14044189 -9.63853455 4.01544189 C-9.37040955 3.06669189 -9.10228455 2.11794189 -8.82603455 1.14044189 C-5.88745399 -0.32884838 -3.28203342 0.00764285 0 0 Z " fill="#C6EEF5" transform="translate(47.82603454589844,159.85955810546875)"/>
<path d="M0 0 C1.0785044 -0.00467997 1.0785044 -0.00467997 2.17879677 -0.00945449 C4.60023703 -0.017464 7.02142874 -0.01109948 9.44287109 -0.00482178 C11.17389066 -0.00753033 12.90490908 -0.0110905 14.63592529 -0.01544189 C19.3465633 -0.0245843 24.05711401 -0.02101404 28.7677536 -0.01468372 C33.68892153 -0.00963328 38.61008179 -0.0143125 43.53125 -0.01745605 C51.79672594 -0.0210985 60.06216619 -0.01628932 68.32763672 -0.0067749 C77.89455081 0.00411018 87.46137967 0.0005848 97.0282917 -0.01042771 C105.23042597 -0.01949268 113.43253451 -0.02078975 121.63467216 -0.01555037 C126.53862786 -0.01242631 131.44254344 -0.01203325 136.34649658 -0.01862335 C140.95604712 -0.02438471 145.56548737 -0.02042221 150.17502594 -0.00883484 C151.87059597 -0.00618175 153.56617523 -0.00696433 155.26174164 -0.01136017 C157.56882709 -0.01679163 159.87555479 -0.01001107 162.18261719 0 C164.12278214 0.00113108 164.12278214 0.00113108 166.10214233 0.002285 C169.09130859 0.25396729 169.09130859 0.25396729 171.09130859 2.25396729 C171.34130859 4.75396729 171.34130859 4.75396729 171.09130859 7.25396729 C168.21533942 10.12993646 166.21256125 9.50558519 162.18261719 9.50793457 C161.10411279 9.51261454 161.10411279 9.51261454 160.00382042 9.51738906 C157.58238016 9.52539857 155.16118845 9.51903405 152.73974609 9.51275635 C151.00872653 9.5154649 149.27770811 9.51902507 147.54669189 9.52337646 C142.83605389 9.53251887 138.12550318 9.52894861 133.41486359 9.52261829 C128.49369566 9.51756785 123.57253539 9.52224707 118.65136719 9.52539062 C110.38589124 9.52903307 102.120451 9.52422389 93.85498047 9.51470947 C84.28806637 9.50382439 74.72123751 9.50734977 65.15432549 9.51836228 C56.95219122 9.52742725 48.75008267 9.52872432 40.54794502 9.52348495 C35.64398933 9.52036088 30.74007375 9.51996782 25.83612061 9.52655792 C21.22657007 9.53231928 16.61712982 9.52835678 12.00759125 9.51676941 C10.31202121 9.51411632 8.61644196 9.5148989 6.92087555 9.51929474 C4.6137901 9.5247262 2.3070624 9.51794564 0 9.50793457 C-1.2934433 9.50718052 -2.5868866 9.50642647 -3.91952515 9.50564957 C-6.90869141 9.25396729 -6.90869141 9.25396729 -8.90869141 7.25396729 C-9.15869141 4.75396729 -9.15869141 4.75396729 -8.90869141 2.25396729 C-6.03272223 -0.62200189 -4.02994406 0.00234938 0 0 Z " fill="#CBF4FB" transform="translate(46.90869140625,57.74603271484375)"/>
<path d="M0 0 C3.00197464 1.80118478 4.45166366 2.90332732 6 6 C6.28544013 11.65279853 6.31378534 17.30674035 6.35009766 22.96606445 C6.36665332 24.85844219 6.39393835 26.7507575 6.43212891 28.64282227 C6.48694472 31.37288814 6.50877818 34.1014889 6.5234375 36.83203125 C6.54610687 37.67490189 6.56877625 38.51777252 6.59213257 39.38618469 C6.57635038 43.78297543 6.43319775 45.45834907 3.59228516 49.01049805 C-0.29970321 51.99748366 -2.73496944 52.41342493 -7.5546875 52.3359375 C-12.66923558 51.63329991 -16.42166168 49.01306674 -19.57421875 44.9921875 C-23.84289439 38.36289754 -24.23702451 32.99881734 -24.3125 25.25 C-24.34150391 24.27289063 -24.37050781 23.29578125 -24.40039062 22.2890625 C-24.46526179 14.88376955 -23.34661715 10.54430761 -18.1484375 5.0390625 C-17.56320313 4.57242188 -16.97796875 4.10578125 -16.375 3.625 C-15.78460938 3.14289063 -15.19421875 2.66078125 -14.5859375 2.1640625 C-10.2400537 -1.02577339 -5.18693729 -0.56135685 0 0 Z M-10.65234375 12.90625 C-13.87727794 17.15608008 -13.70954605 20.309672 -13.5625 25.5 C-13.57345703 26.34175781 -13.58441406 27.18351562 -13.59570312 28.05078125 C-13.54768476 32.11633642 -13.3113602 34.47130085 -11.21484375 38.03125 C-8.96553917 40.3367536 -8.96553917 40.3367536 -5 41 C-5 31.1 -5 21.2 -5 11 C-8.13836681 10.7081943 -8.13836681 10.7081943 -10.65234375 12.90625 Z " fill="#030405" transform="translate(192,88)"/>
<path d="M0 0 C13.2 0 26.4 0 40 0 C40 5.28 40 10.56 40 16 C36.75225863 19.24774137 35.92013736 19.35527743 31.55322266 19.4168396 C30.83440918 19.41076691 30.1155957 19.40469421 29.375 19.3984375 C28.2600415 19.40274277 28.2600415 19.40274277 27.12255859 19.40713501 C25.5524011 19.40917476 23.98221814 19.403651 22.41210938 19.39111328 C20.00853668 19.37505703 17.60664539 19.39096352 15.203125 19.41015625 C13.67707962 19.4081738 12.15103529 19.40433009 10.625 19.3984375 C9.90618652 19.40451019 9.18737305 19.41058289 8.44677734 19.4168396 C4.07986264 19.35527743 3.24774137 19.24774137 0 16 C0 10.72 0 5.44 0 0 Z " fill="#C3EBF1" transform="translate(108,227)"/>
<path d="M0 0 C1.8125 0.8125 1.8125 0.8125 3.8125 2.8125 C4.1758156 5.64636167 4.1693671 7.21772151 2.6875 9.6875 C0.8125 10.8125 0.8125 10.8125 -2.25 10.625 C-5.1875 9.8125 -5.1875 9.8125 -7.1875 7.8125 C-7.625 5.375 -7.625 5.375 -7.1875 2.8125 C-4.72101823 0.75709852 -3.25262093 -0.27879608 0 0 Z " fill="#040607" transform="translate(215.1875,108.1875)"/>
</svg>
