<?xml version="1.0" standalone="no"?>
<!DOCTYPE svg PUBLIC "-//W3C//DTD SVG 20010904//EN"
 "http://www.w3.org/TR/2001/REC-SVG-20010904/DTD/svg10.dtd">
<svg version="1.0" xmlns="http://www.w3.org/2000/svg"
 width="256.000000pt" height="256.000000pt" viewBox="0 0 256.000000 256.000000"
 preserveAspectRatio="xMidYMid meet">

<g transform="translate(0.000000,256.000000) scale(0.100000,-0.100000)"
fill="#000000" stroke="none">
<path d="M1160 2340 c-363 -44 -676 -266 -838 -593 -74 -152 -105 -288 -105
-467 0 -283 96 -526 288 -729 210 -221 472 -334 775 -334 283 0 526 96 729
288 221 210 334 472 334 775 0 148 -19 256 -70 385 -146 373 -481 630 -876
674 -106 12 -141 12 -237 1z m178 -546 c45 -31 52 -62 52 -238 l0 -165 181 -3
181 -3 29 -33 c40 -45 40 -99 0 -144 l-29 -33 -181 -3 -181 -3 0 -165 c0 -176
-7 -207 -52 -238 -29 -20 -87 -20 -116 0 -45 32 -52 62 -52 239 l0 165 -165 0
c-177 0 -207 7 -239 52 -20 29 -20 87 0 116 31 45 62 52 238 52 l165 0 3 181
3 181 33 29 c37 33 93 39 130 13z"/>
</g>
</svg>
